<svg width="80" height="64" viewBox="0 0 80 64" fill="none"
    xmlns="http://www.w3.org/2000/svg">
    <g clip-path="url(#clip0_41130_3796)">
        <path d="M36.2072 62.3808L37.7449 52.3628C37.8064 52.0146 37.9704 51.7073 38.2574 51.4409C38.5855 51.1336 38.975 50.9902 39.3851 50.9902C39.7951 50.9902 40.1437 51.1132 40.4512 51.3795C40.7587 51.6458 40.9637 51.9326 41.0458 52.2809L43.0345 59.3897L45.0437 52.2809C45.1462 51.9326 45.3512 51.6458 45.6383 51.4C45.9663 51.1336 46.3354 50.9902 46.7249 50.9902C47.1554 50.9902 47.5245 51.1336 47.832 51.4C48.1396 51.6663 48.3036 51.9941 48.3651 52.3423L49.9438 62.3603V62.6881C49.9438 63.0773 49.8207 63.3846 49.5952 63.6304C49.3697 63.8763 49.0827 63.9787 48.7341 63.9787C48.3241 63.9787 48.0165 63.8763 47.832 63.6919C47.6475 63.487 47.504 63.1797 47.422 62.729L46.4584 55.4153L44.4081 62.9544C44.3261 63.2617 44.2031 63.487 44.0391 63.6304C43.8136 63.8763 43.4855 63.9787 43.0755 63.9787C42.6654 63.9787 42.3579 63.8558 42.1119 63.6304C41.9274 63.4461 41.8043 63.2207 41.7428 62.9544L39.7336 55.4153L38.688 62.729C38.6265 63.1593 38.5035 63.487 38.319 63.6714C38.1139 63.8763 37.8064 63.9787 37.3963 63.9787C37.0478 63.9787 36.7608 63.8558 36.5353 63.6304C36.3097 63.4051 36.1867 63.0773 36.1867 62.6881C36.1662 62.5447 36.1867 62.4422 36.2072 62.3808Z" fill="black" />
        <path d="M55.7458 58.5495C55.2127 58.8568 54.7821 59.0002 54.2081 59.0002C53.6545 59.0002 53.306 58.8977 52.9779 58.6519C52.6704 58.4266 52.4859 58.0783 52.4449 57.7915C52.4449 57.7505 52.4654 57.689 52.5064 57.6686C53.552 57.6276 55.3767 57.5456 55.8073 57.4227C55.8483 57.3817 55.9303 57.0744 55.9303 57.013C55.8278 56.9925 55.7048 56.9106 55.6843 56.8491C55.5817 56.214 55.0897 55.1897 53.6135 55.1897C53.0805 55.1897 52.5064 55.3536 52.0758 55.5789C51.3788 55.9682 50.8662 56.6852 50.8662 57.6481C50.8662 58.2831 51.0917 59.0207 51.6658 59.4919C52.0553 59.8196 52.5884 60.0245 53.388 60.0245C54.1466 60.0245 55.1717 59.6967 55.7253 59.0821C55.7458 59.0207 55.8278 58.7543 55.8073 58.6314C55.8073 58.6109 55.7663 58.57 55.7458 58.5495ZM53.2445 55.7633C53.7775 55.7633 54.1056 56.255 54.1876 56.9105C54.1671 56.9515 54.1466 56.9925 54.0851 57.013C53.8595 57.054 52.8959 57.054 52.5064 57.054C52.4449 57.054 52.4039 56.9925 52.4039 56.972C52.4449 56.3164 52.7524 55.7633 53.2445 55.7633ZM63.1881 59.1436C62.8601 59.1436 62.6755 59.1436 62.532 59.1231C62.3885 59.1026 62.3065 59.0207 62.3065 58.7748V56.9515C62.3065 55.2716 62.327 54.4317 62.3475 53.7761C62.368 53.223 62.3475 53.0386 62.491 52.8542C62.5115 52.8132 62.45 52.6289 62.3885 52.5879C61.8964 52.7518 60.5023 52.9157 59.7232 52.9157C59.6412 52.9566 59.6207 53.3254 59.6617 53.3869C59.9692 53.4278 60.2563 53.4483 60.4613 53.5098C60.6868 53.5917 60.7278 53.7351 60.7483 53.9195C60.7688 54.2063 60.7688 54.5341 60.7688 55.1692C60.7688 55.2102 60.7278 55.2307 60.7073 55.2307C60.5843 55.2102 60.4203 55.2102 60.2973 55.2102C59.4567 55.2102 58.3701 55.538 57.8575 55.9067C57.2629 56.296 56.8529 56.972 56.8529 57.771C56.8529 58.3856 57.0784 59.0002 57.4475 59.3894C57.796 59.7582 58.329 60.004 58.9236 60.004C59.3337 60.004 60.0512 59.7377 60.6663 59.3894C60.6868 59.3689 60.7278 59.4099 60.7278 59.4304C60.7483 59.6148 60.7483 59.8606 60.7688 59.9631C60.7893 60.004 60.8508 60.086 60.8918 60.086C61.2199 60.086 62.5935 59.8401 63.0856 59.6558C63.1266 59.6148 63.2086 59.205 63.1881 59.1436ZM59.6002 55.8248C59.8872 55.8248 60.2153 55.8862 60.4613 56.0501C60.7073 56.214 60.7483 56.3779 60.7483 56.6033C60.7483 57.2383 60.7483 58.3651 60.7278 58.6519C60.7278 58.7748 60.7073 58.8568 60.6458 58.8977C60.4613 59.0207 60.1948 59.0821 60.0102 59.0821C59.0876 59.0821 58.4521 58.4266 58.4521 57.2588C58.4521 56.6647 58.6571 56.2755 58.9031 56.0501C59.1286 55.8862 59.3747 55.8248 59.6002 55.8248ZM66.7555 59.4509C66.448 59.4099 66.3249 59.3689 66.2019 59.3485C66.0379 59.3075 65.9559 59.1846 65.9559 58.8977C65.9354 58.3856 65.9354 57.73 65.9354 57.1359V55.2102C65.2998 55.415 64.0287 55.5789 63.7007 55.5789C63.6391 55.6404 63.5776 55.9272 63.6391 56.0091C64.0697 56.1321 64.1927 56.214 64.2952 56.3164C64.3567 56.3574 64.3772 56.4803 64.3772 56.5623V57.5661C64.3772 58.1193 64.3772 58.6929 64.3567 58.9592C64.3362 59.205 64.3362 59.287 64.1722 59.3485C64.0287 59.3894 63.8852 59.4099 63.6186 59.4509C63.5366 59.5123 63.5776 59.8811 63.6186 59.9426C63.9057 59.9426 64.4182 59.9016 65.0948 59.9016C66.0584 59.9016 66.5095 59.9426 66.694 59.9426C66.776 59.8811 66.8375 59.5123 66.7555 59.4509ZM65.9149 53.7966C65.9149 53.6942 65.8944 53.4688 65.7919 53.3664C65.7304 53.3049 65.5254 53.2435 65.2178 53.2435C64.8693 53.2435 64.4387 53.3459 64.2542 53.5303C64.1517 53.6327 64.1517 53.9605 64.1722 54.0424C64.2747 54.3497 64.4182 54.4726 64.6233 54.5546C64.7463 54.6161 65.4638 54.5956 65.5664 54.4931C65.7714 54.3292 65.9149 54.0219 65.9149 53.7966ZM75.2024 59.1641C74.8744 59.1641 74.7719 58.9592 74.7719 58.5904C74.7924 58.1807 75.0179 57.1359 75.2435 56.1935C75.3255 55.8248 75.428 55.5994 75.5305 55.3536C75.2024 55.2921 74.7924 55.1897 74.0543 55.1897C73.0702 55.1897 71.7581 55.8452 71.2865 56.3164C70.6304 56.9106 70.0974 57.9144 70.0974 58.8568C70.0974 59.3689 70.2614 60.0655 70.897 60.0655C71.471 60.0655 72.5371 59.4714 73.2752 58.6314C73.2957 58.5905 73.3367 58.6109 73.3367 58.6519C73.2752 58.9797 73.2752 59.1641 73.2547 59.328C73.2342 59.6762 73.3777 60.086 73.9518 60.086C75.674 60.086 77.9293 58.9797 77.9293 56.4803C77.9293 54.9848 76.5966 53.1205 73.8288 53.1205C72.1066 53.1205 70.5689 53.7146 69.3593 54.8004C68.3137 55.7223 67.6576 56.972 67.6576 58.4266C67.6576 61.3561 70.2614 62.3805 71.0405 62.3805C71.43 62.3805 72.0451 62.2985 72.3526 62.0527C72.3731 62.0117 72.3731 61.8478 72.3526 61.8273C72.0041 61.8683 71.4505 61.7863 71.143 61.7249C70.0154 61.4791 68.8467 60.4138 68.8467 58.3446C68.8467 55.0258 71.5735 53.8171 73.2547 53.8171C75.1819 53.8171 76.9861 54.7185 76.9861 57.013C76.9656 58.4061 75.9815 59.1641 75.2024 59.1641ZM72.0451 58.8363C71.8196 58.8363 71.6145 58.6314 71.635 58.0988C71.635 57.5866 71.7991 57.054 72.0041 56.6852C72.3731 56.0911 72.7627 55.9477 73.2342 55.9477C73.4803 55.9477 73.7878 55.9887 73.9928 56.0911C73.9313 56.214 73.8288 56.5213 73.7673 56.7262C73.5828 57.3817 73.5008 57.5866 73.3572 57.7915C72.8447 58.529 72.3731 58.8363 72.0451 58.8363Z" fill="black" />
        <path fill-rule="evenodd" clip-rule="evenodd" d="M80.0002 0C76.1868 11.6773 71.2252 23.7849 63.0243 32.8809C53.9008 42.1613 39.6107 42.653 29.7696 43.1037C19.9285 43.5544 11.9326 43.4725 6.72498 46.0743C1.5174 48.6761 0.84082 53.1421 0.84082 53.1421L1.35338 50.3764L4.96178 45.2138L23.5164 38.9449L50.3334 35.1754L67.8834 24.338L74.6901 12.0256L78.7906 2.68374L80.0002 0Z" fill="black" />
        <path fill-rule="evenodd" clip-rule="evenodd" d="M72.025 16.2461C72.0455 16.2461 69.6877 20.6302 65.1157 23.4574C61.9789 25.4036 57.9194 26.5303 53.5524 26.7147C47.6888 26.9606 42.7682 26.6533 39.0368 27.4727C35.5719 28.2307 32.5171 29.4189 31.4099 34.4177C31.4099 34.4177 31.0614 29.4394 37.1506 26.4279C43.2398 23.3959 58.5345 24.6251 63.578 22.1872C65.6693 21.1834 67.617 20.2819 69.3392 18.8684C70.3438 18.0284 71.2254 17.3524 72.025 16.2461Z" fill="black" />
        <path fill-rule="evenodd" clip-rule="evenodd" d="M45.0233 21.1217C44.1418 19.913 42.276 17.3112 33.7471 20.1384C27.2273 22.2895 21.7737 24.3381 16.8122 23.2933C13.6958 22.6377 11.4406 20.5276 9.24682 18.2946C5.96645 14.9143 3.60869 11.4726 3.77271 11.3906L5.4949 13.5417L10.5795 18.2126L19.1494 22.0027L32.5784 19.1141L40.0823 17.7619L42.4401 18.438L44.1007 19.6262L44.6748 20.3842L44.9413 20.8759L45.0233 21.1217Z" fill="black" />
        <path fill-rule="evenodd" clip-rule="evenodd" d="M3.77263 11.3913C3.77263 11.3913 10.4359 20.0776 18.2883 20.0366C22.9423 20.0161 28.4369 18.582 33.0909 17.7421C35.0386 17.3938 36.9454 17.1685 38.483 17.1685C40.8613 17.148 44.6132 18.3567 45.0233 21.1224C45.0233 21.1224 43.2806 16.4924 34.4031 19.2581C27.0222 21.5731 20.769 23.4783 15.869 22.1057C14.7209 21.7779 13.6752 21.2658 12.7526 20.6717C10.7434 19.3605 9.04172 17.4962 7.38103 15.7344C5.14628 13.317 3.58811 11.3503 3.77263 11.3913Z" fill="#FF7506" />
        <path fill-rule="evenodd" clip-rule="evenodd" d="M0.840828 53.1421C0.840828 53.1421 0.369275 49.8848 3.34211 46.3201C5.37184 43.8822 9.22627 41.2804 15.1514 39.6415C29.7286 35.5851 48.9392 34.0487 55.0899 31.283C61.2201 28.5173 66.7968 24.2766 69.421 20.3636C72.0248 16.4507 71.9633 16.3278 72.0043 16.3278C72.0248 16.3278 69.9131 20.0563 65.2181 22.6581C63.2294 23.7644 60.236 25.0755 57.5092 25.3828C48.2832 26.4072 42.9731 25.6287 38.8726 26.7145C34.7721 27.8003 33.296 29.4187 32.3324 31.3854C31.3688 33.3316 31.4303 34.4379 31.4303 34.4379C31.4303 34.4379 30.9382 28.8656 37.0274 25.8335C43.1166 22.8015 59.0879 22.5352 64.111 20.0768C66.2022 19.073 68.1499 18.1716 69.8721 16.758C72.3119 14.7503 73.911 12.1076 75.9613 7.9283C79.4877 0.758003 80.0002 0 80.0002 0C76.0638 10.4891 71.3688 22.8015 63.5574 30.7708C54.4339 40.0512 40.1437 40.9117 30.3026 41.3624C20.4615 41.8131 12.0761 42.4481 6.86851 45.0499C1.66092 47.6517 0.840828 53.1421 0.840828 53.1421Z" fill="#FF7506" />
        <path d="M3.34194 53.3672H6.23276L9.34911 60.0048H6.49929L6.15075 59.1239H3.34194L3.0139 60.0048H0.225586L3.34194 53.3672ZM3.875 57.7308H5.6792L4.7566 55.3544L3.875 57.7308ZM10.3537 53.3672H13.2035V58.4479H17.099V59.9843H10.3332V53.3672H10.3537ZM17.8576 53.3672H25.8125V55.1085H23.2702V60.0048H20.4409V55.1085H17.8576V53.3672ZM29.4619 53.3672H32.3527L35.4691 60.0048H32.6397L32.2912 59.1239H29.4619L29.1338 60.0048H26.366L29.4619 53.3672ZM29.9949 57.7308H31.7991L30.8765 55.3544L29.9949 57.7308Z" fill="#231F20" stroke="white" stroke-width="0.109501" stroke-miterlimit="2.6131" />
        <path d="M3.34194 53.3672H6.23276L9.34911 60.0048H6.49929L6.15075 59.1239H3.34194L3.0139 60.0048H0.225586L3.34194 53.3672ZM3.875 57.7308H5.6792L4.7566 55.3544L3.875 57.7308ZM10.3537 53.3672H13.2035V58.4479H17.099V59.9843H10.3332V53.3672H10.3537ZM17.8576 53.3672H25.8125V55.1085H23.2702V60.0048H20.4409V55.1085H17.8576V53.3672ZM29.4619 53.3672H32.3527L35.4691 60.0048H32.6397L32.2912 59.1239H29.4619L29.1338 60.0048H26.366L29.4619 53.3672ZM29.9949 57.7308H31.7991L30.8765 55.3544L29.9949 57.7308Z" fill="white" stroke="black" stroke-width="0.290356" />
    </g>
    <defs>
        <clipPath id="clip0_41130_3796">
            <rect width="80" height="64" fill="white" />
        </clipPath>
    </defs>
</svg>